<?xml version="1.0" encoding="utf-8"?>
<!-- Generator: Adobe Illustrator 21.0.0, SVG Export Plug-In . SVG Version: 6.00 Build 0)  -->
<svg version="1.1" id="Layer_1" xmlns="http://www.w3.org/2000/svg" xmlns:xlink="http://www.w3.org/1999/xlink" x="0px" y="0px"
	 viewBox="0 0 60 60" style="enable-background:new 0 0 60 60;" xml:space="preserve">
<style type="text/css">
	.st0{fill:#0D0E1F;}
</style>
<g>
	<path class="st0" d="M44.8,30.8c-0.5,0.7-1.2,1.4-2,1.8c-0.1,0-0.2,0.1-0.2,0.1c-0.2,0-0.3-0.1-0.4-0.3c-0.1-0.2,0-0.5,0.2-0.7
		c0.6-0.3,1.1-0.8,1.5-1.3c-1.4-0.5-2.8-1.1-4.1-1.8c-0.3,0.4-0.7,0.8-1.1,1c-0.1,0-0.2,0.1-0.3,0.1c-0.2,0-0.3-0.1-0.4-0.2
		c-0.1-0.2-0.1-0.5,0.2-0.7c0.3-0.2,0.5-0.4,0.7-0.6c-0.4-0.2-0.7-0.4-1.1-0.6c-0.9-0.5-1.6-1-2.2-1.4c-1-0.7-2-1.5-3-2.3
		c-0.3,0.5-0.7,1-1.1,1.4c-0.1,0.1-0.2,0.2-0.4,0.2c-0.1,0-0.2,0-0.3-0.1c-0.2-0.2-0.2-0.5,0-0.7c0.4-0.4,0.7-0.9,1-1.4
		c-1.2-1.1-2.3-2.2-3.3-3.4c-0.6,0.5-1.2,0.8-1.9,1c0,0-0.1,0-0.1,0c-0.2,0-0.4-0.1-0.5-0.4C25.8,20.3,26,20,26.2,20
		c0.6-0.2,1.1-0.5,1.6-0.8c-0.9-1-1.6-2.1-2.4-3.1c-0.5,0.2-1,0.3-1.5,0.3c-0.2,0-0.5,0-0.7-0.1c-0.3,0-0.5-0.3-0.4-0.6
		s0.3-0.5,0.6-0.4c0.5,0.1,1,0,1.5-0.1c-0.4-0.6-0.8-1.2-1.2-2c-3.4,0.5-6.2,1.3-8.3,2.4c-0.2,0.1-0.5,0-0.7-0.2
		c-0.7-1.1-1.9-2.7-2.8-3.4c-0.4,3.4-1.7,18.9,3.8,25c1,0.2,6.2,1.2,12.1,1.4c0.7,0,1.4,0,2.1,0H30c0.7,0,1.5,0,2.2,0
		c5.9-0.2,11.2-1.2,12.1-1.4c1.2-1.3,2.1-3.2,2.8-5.5C46.3,31.3,45.5,31.1,44.8,30.8z M35.9,29.4c0.1-0.2,0.3-0.3,0.5-0.2
		c0.2,0.1,0.3,0.3,0.2,0.5c-0.4,0.9-1.2,1.5-2.2,1.6c0,0,0,0,0,0c-0.2,0-0.4-0.2-0.4-0.3c0-0.2,0.1-0.4,0.3-0.4
		C35,30.4,35.7,30,35.9,29.4z M33.1,29.7c0.9-0.3,1.6-1.3,1.6-2.2c0-0.2,0.2-0.4,0.4-0.4c0,0,0,0,0,0c0.2,0,0.4,0.2,0.4,0.4
		c0,1.3-0.9,2.5-2.1,2.9c0,0-0.1,0-0.1,0c-0.2,0-0.3-0.1-0.4-0.2C32.8,30,32.9,29.8,33.1,29.7z M24.9,27.1c0.2,0,0.4,0.2,0.4,0.4
		c0,1,0.7,1.9,1.6,2.2c0.2,0.1,0.3,0.3,0.2,0.5c-0.1,0.2-0.2,0.2-0.4,0.2c0,0-0.1,0-0.1,0c-1.2-0.4-2.1-1.6-2.1-2.9
		C24.5,27.3,24.7,27.1,24.9,27.1z M23.6,29.2c0.2-0.1,0.4,0,0.5,0.2c0.3,0.6,0.9,1.1,1.6,1.1c0.2,0,0.4,0.2,0.3,0.4
		c0,0.2-0.2,0.3-0.4,0.3c0,0,0,0,0,0c-0.9-0.1-1.8-0.7-2.2-1.6C23.3,29.5,23.4,29.3,23.6,29.2z M20.6,23.7c0,0-0.1,0-0.1,0
		c-0.2,0-0.4-0.2-0.5-0.4c-0.2-0.7-0.5-1.3-1-1.7c-0.5-0.4-1.2-0.5-1.7-0.3c-0.5,0.2-0.9,0.8-0.8,1.3c0,0.3-0.1,0.5-0.4,0.6
		c-0.3,0-0.5-0.1-0.6-0.4c-0.2-1,0.4-2,1.4-2.4c0.8-0.4,1.9-0.2,2.7,0.4c0.7,0.5,1.2,1.3,1.4,2.2C21,23.4,20.8,23.7,20.6,23.7z
		 M38.1,31.9c-1.3,2-2.7,2.5-4,2.5c-0.1,0-0.2,0-0.3,0c-0.2,1.8-1.8,3.2-3.9,3.2c-2.1,0-3.6-1.3-3.9-3.1c-1.2,0.1-2.8-0.4-4.2-2.5
		c-0.2-0.2-0.1-0.5,0.1-0.7c0.2-0.2,0.5-0.1,0.7,0.1c1,1.6,2.3,2.2,3.7,2c1.5-0.3,2.7-1.4,3.1-1.8v-1.7h-0.8c-0.4,0-0.6-0.3-0.6-0.6
		v-0.7c0-0.4,0.3-0.6,0.6-0.6h2.5c0.3,0,0.6,0.3,0.6,0.6v0.7c0,0.3-0.3,0.6-0.6,0.6h-0.8v1.7c0.4,0.4,1.6,1.5,3,1.8
		c1.5,0.3,2.7-0.3,3.8-2c0.2-0.2,0.5-0.3,0.7-0.1C38.2,31.3,38.2,31.6,38.1,31.9z"/>
	<path class="st0" d="M35.1,45.4c0-1.4-1.1-2.5-2.5-2.5c0,0-0.2,0-0.2,0c-0.1,0-0.3,0-0.4-0.1c-0.1-0.1-0.2-0.2-0.2-0.4v-2.9
		c-0.6,0-1.2,0-1.8,0h-0.1c-0.6,0-1.1,0-1.7,0v2.9c0,0.1-0.1,0.3-0.2,0.4c-0.1,0.1-0.2,0.1-0.4,0.1c0,0-0.1,0-0.1,0c0,0,0,0,0,0
		c-1.5,0-2.6,1.1-2.6,2.5c0,1.4,1.1,2.5,2.5,2.5c0.8,0,1.6-0.4,2.1-1.1c0.2-0.3,0.6-0.3,0.8,0c0.5,0.7,1.3,1.1,2.1,1.1
		C33.9,47.9,35.1,46.8,35.1,45.4z"/>
	<path class="st0" d="M27,34.2c0.2,1.4,1.3,2.3,2.9,2.3c1.6,0,2.8-0.9,2.9-2.3c-1.3-0.4-2.3-1.2-2.8-1.7
		C29.5,32.9,28.4,33.8,27,34.2z"/>
	<path class="st0" d="M48.1,12.1c-0.9,0.6-2.2,2.3-2.8,3.3c-0.1,0.2-0.4,0.3-0.7,0.2c-5.7-2.9-14.5-2.9-14.6-2.9c0,0-2.3,0-5.2,0.4
		c0.4,0.6,0.7,1.2,1,1.7c0.4-0.3,0.8-0.6,1.1-0.9c0.2-0.2,0.5-0.3,0.7-0.1c0.2,0.2,0.3,0.5,0.1,0.7c-0.3,0.5-0.8,0.9-1.3,1.2
		c0.7,1,1.4,1.9,2.2,2.9c0.3-0.4,0.6-0.8,0.8-1.2c0.1-0.3,0.4-0.4,0.7-0.3c0.3,0.1,0.4,0.4,0.3,0.7c-0.3,0.6-0.6,1.1-1.1,1.6
		c1,1.1,2,2.1,3.1,3.1c0.3-0.6,0.5-1.1,0.6-1.7c0.1-0.3,0.3-0.4,0.6-0.4c0.3,0.1,0.4,0.3,0.4,0.6c-0.2,0.7-0.5,1.5-0.8,2.2
		c1,0.8,2,1.6,3,2.3c0.6,0.4,1.3,0.8,2.1,1.4c0.4,0.2,0.8,0.4,1.2,0.6c0.2-0.4,0.2-0.8,0.2-1.2c0-0.3,0.2-0.5,0.5-0.5
		c0.3,0,0.5,0.2,0.5,0.5c0,0.6-0.1,1.2-0.3,1.7c1.3,0.7,2.7,1.3,4.1,1.8c0.3-0.5,0.5-1,0.7-1.6c0.1-0.3,0.3-0.4,0.6-0.4
		c0.3,0.1,0.4,0.3,0.4,0.6c-0.1,0.6-0.4,1.1-0.7,1.7c0.6,0.2,1.3,0.4,2,0.6C49.1,23.6,48.3,14.6,48.1,12.1z M44.5,22.9
		c0,0.3-0.3,0.4-0.6,0.4c-0.3,0-0.5-0.3-0.4-0.6c0.1-0.5-0.3-1.1-0.8-1.3c-0.5-0.2-1.2-0.1-1.7,0.3c-0.5,0.4-0.8,0.9-1,1.7
		c-0.1,0.2-0.3,0.4-0.5,0.4c0,0-0.1,0-0.1,0c-0.3-0.1-0.4-0.3-0.4-0.6c0.2-0.9,0.7-1.7,1.4-2.2c0.8-0.6,1.9-0.7,2.7-0.4
		C44.1,20.9,44.7,22,44.5,22.9z"/>
</g>
</svg>
